<svg width="36" height="36" viewBox="0 0 36 36" fill="none" xmlns="http://www.w3.org/2000/svg">
    <path fill-rule="evenodd" clip-rule="evenodd" d="M23.5729 8.47605C22.8396 8.08386 22.1122 7.875 20.1063 7.875L7.71246 7.87673C5.93624 7.89749 5.24683 8.1045 4.5521 8.47605C3.81876 8.86824 3.24324 9.44376 2.85105 10.1771C2.45886 10.9104 2.25 11.6378 2.25 13.6437L2.25173 22.6625C2.27249 24.4388 2.4795 25.1282 2.85105 25.8229C3.24324 26.5562 3.81876 27.1318 4.5521 27.524C5.28543 27.9161 6.01282 28.125 8.01874 28.125H20.1063C22.1122 28.125 22.8396 27.9161 23.5729 27.524C24.3062 27.1318 24.8818 26.5562 25.274 25.8229C25.5595 25.2889 25.7479 24.758 25.8292 23.7343L28.4063 25.3443C28.9612 25.6911 29.6024 25.875 30.2567 25.875C32.1849 25.875 33.7479 24.3119 33.7479 22.3837V13.6167C33.7479 12.9624 33.5641 12.3212 33.2173 11.7664C32.1953 10.1313 30.0414 9.63422 28.4063 10.6561L25.8293 12.2661C25.748 11.2421 25.5596 10.7112 25.274 10.1771C24.8818 9.44376 24.3062 8.86824 23.5729 8.47605ZM25.875 20.4649V15.5354L27.2411 14.7003L29.8969 13.0411C30.2148 12.8425 30.6336 12.9391 30.8323 13.257C30.8997 13.3649 30.9354 13.4895 30.9354 13.6167V22.3837C30.9354 22.7586 30.6315 23.0625 30.2567 23.0625C30.1295 23.0625 30.0044 23.0265 29.8965 22.959L27.2411 21.3002L25.875 20.4649ZM7.76736 10.6883H20.3576C21.3964 10.6957 21.7927 10.752 22.1059 10.8878L22.2465 10.9561C22.4897 11.0862 22.6638 11.2603 22.7939 11.5035L22.8622 11.6441C22.9771 11.9091 23.0351 12.2336 23.0547 12.9565L23.0617 13.3924V22.6076C23.0543 23.6464 22.998 24.0427 22.8622 24.3559L22.7939 24.4965C22.6638 24.7397 22.4897 24.9138 22.2465 25.0439L22.1059 25.1122C21.8409 25.2271 21.5164 25.2851 20.7935 25.3047L20.3576 25.3117H7.76736C6.72857 25.3043 6.3323 25.248 6.01914 25.1122L5.87847 25.0439C5.63527 24.9138 5.46122 24.7397 5.33115 24.4965L5.26275 24.3559C5.1479 24.0909 5.08991 23.7664 5.07032 23.0435L5.06334 22.6076V13.3924C5.0707 12.3536 5.12702 11.9573 5.26275 11.6441L5.33115 11.5035C5.46122 11.2603 5.63527 11.0862 5.87847 10.9561L6.01914 10.8878C6.28413 10.7729 6.60861 10.7149 7.3315 10.6953L7.76736 10.6883Z" fill="url(#paint0_linear_5_486)"/>
    <defs>
        <linearGradient id="paint0_linear_5_486" x1="2.25" y1="7.875" x2="20.6729" y2="36.5309" gradientUnits="userSpaceOnUse">
            <stop stop-color="#2EE54D"/>
            <stop offset="1" stop-color="#0D7EFF"/>
        </linearGradient>
    </defs>
</svg>
