<svg width="181" height="112" viewBox="0 0 181 112" fill="none" xmlns="http://www.w3.org/2000/svg">
    <g clip-path="url(#clip0_23_91887)">
        <path d="M126.684 5.31534C117.575 5.16787 108.58 7.3553 100.556 11.6693C92.532 15.9834 85.7461 22.2803 80.8452 29.96C86.6795 35.5729 91.0415 42.5364 93.5455 50.2352C95.9763 57.6871 96.6144 65.6074 95.4081 73.3523C94.2018 81.0973 91.1852 88.4484 86.6033 94.8081C92.5863 101.303 100.088 106.212 108.436 109.094C116.783 111.975 125.716 112.74 134.432 111.318C143.147 109.897 151.374 106.335 158.374 100.95C165.374 95.5661 170.927 88.5285 174.537 80.4689C178.147 72.4093 179.699 63.5797 179.056 54.7722C178.412 45.9647 175.592 37.4548 170.849 30.0057C166.106 22.5565 159.588 16.4012 151.879 12.0919C144.171 7.78266 135.514 5.45422 126.684 5.31534Z" fill="#0077FF"/>
        <mask id="mask0_23_91887" style="mask-type:alpha" maskUnits="userSpaceOnUse" x="80" y="5" width="100" height="108">
            <path d="M126.684 5.31528C117.575 5.16781 108.58 7.35524 100.556 11.6693C92.532 15.9833 85.7461 22.2803 80.8453 29.96C86.6795 35.5728 91.0416 42.5363 93.5456 50.2352C95.9764 57.687 96.6144 65.6073 95.4082 73.3522C94.2019 81.0972 91.1853 88.4483 86.6034 94.808C92.5864 101.303 100.088 106.212 108.436 109.094C116.783 111.975 125.716 112.74 134.432 111.318C143.148 109.897 151.374 106.335 158.374 100.95C165.374 95.566 170.928 88.5284 174.537 80.4688C178.147 72.4092 179.699 63.5797 179.056 54.7722C178.412 45.9647 175.592 37.4547 170.849 30.0056C166.106 22.5565 159.588 16.4011 151.88 12.0919C144.171 7.7826 135.514 5.45416 126.684 5.31528Z" fill="black"/>
        </mask>
        <g mask="url(#mask0_23_91887)">
            <path d="M209.439 92.5541C210.343 87.7673 188.198 79.5639 159.976 74.2313C131.753 68.8987 108.142 68.4561 107.237 73.2429C106.333 78.0297 128.478 86.2332 156.7 91.5659C184.922 96.8985 208.534 97.3409 209.439 92.5541Z" fill="#2929B2"/>
            <path d="M158.781 112C176.012 112 189.98 98.0318 189.98 80.8011C189.98 63.5704 176.012 49.6022 158.781 49.6022C141.551 49.6022 127.582 63.5704 127.582 80.8011C127.582 98.0318 141.551 112 158.781 112Z" fill="#FF52B9"/>
            <path d="M127.766 76.9012C127.17 79.4119 127.17 82.027 127.766 84.5376C137.266 87.454 146.926 89.8196 156.699 91.6226C166.457 93.4989 176.315 94.8214 186.223 95.5838C187.693 92.8273 191.001 85.3747 189.531 88.3149C185.999 93.7257 133.422 81.6791 127.766 76.9012Z" fill="#2929B2"/>
            <path d="M118.456 27.6527C125.819 27.6527 131.789 21.6833 131.789 14.3197C131.789 6.95604 125.819 0.986633 118.456 0.986633C111.092 0.986633 105.123 6.95604 105.123 14.3197C105.123 21.6833 111.092 27.6527 118.456 27.6527Z" fill="#5BF1FF"/>
            <path d="M150.777 35.1666C152.661 35.1666 154.187 33.6399 154.187 31.7568C154.187 29.8736 152.661 28.3469 150.777 28.3469C148.894 28.3469 147.368 29.8736 147.368 31.7568C147.368 33.6399 148.894 35.1666 150.777 35.1666Z" fill="white"/>
            <path d="M115.903 47.254C111.82 48.7037 110.799 49.9288 110.043 54.1758C110.043 54.2354 110.02 54.2925 109.977 54.3346C109.935 54.3767 109.878 54.4004 109.819 54.4004C109.759 54.4004 109.702 54.3767 109.66 54.3346C109.618 54.2925 109.594 54.2354 109.594 54.1758C108.124 50.0922 106.919 49.0917 102.672 48.3158C102.613 48.3158 102.556 48.2921 102.514 48.25C102.471 48.2079 102.448 48.1508 102.448 48.0913C102.448 48.0317 102.471 47.9745 102.514 47.9324C102.556 47.8902 102.613 47.8666 102.672 47.8666C106.756 46.4169 107.756 45.1919 108.532 40.9449C108.532 40.8853 108.556 40.8281 108.598 40.786C108.64 40.7439 108.697 40.7202 108.757 40.7202C108.816 40.7202 108.874 40.7439 108.916 40.786C108.958 40.8281 108.981 40.8853 108.981 40.9449C110.431 45.0285 111.656 46.0494 115.903 46.8049C115.947 46.824 115.984 46.8554 116.01 46.8953C116.037 46.9351 116.05 46.9818 116.05 47.0295C116.05 47.0772 116.037 47.1238 116.01 47.1637C115.984 47.2036 115.947 47.235 115.903 47.254Z" fill="white"/>
        </g>
        <path d="M46.2366 111.428C71.485 111.428 91.9528 90.9605 91.9528 65.7121C91.9528 40.4637 71.485 19.9959 46.2366 19.9959C20.9883 19.9959 0.520416 40.4637 0.520416 65.7121C0.520416 90.9605 20.9883 111.428 46.2366 111.428Z" fill="#17D685"/>
        <mask id="mask1_23_91887" style="mask-type:alpha" maskUnits="userSpaceOnUse" x="0" y="19" width="92" height="93">
            <path d="M46.2367 111.428C71.485 111.428 91.9529 90.9605 91.9529 65.7121C91.9529 40.4638 71.485 19.9959 46.2367 19.9959C20.9883 19.9959 0.520439 40.4638 0.520439 65.7121C0.520439 90.9605 20.9883 111.428 46.2367 111.428Z" fill="black"/>
        </mask>
        <g mask="url(#mask1_23_91887)">
            <path d="M84.0511 91.684C83.6632 91.1531 83.2549 90.5814 82.8261 90.0301C81.3235 88.0426 80.075 85.8751 79.1099 83.578C78.824 82.8838 78.579 82.1488 78.3544 81.5362C77.5958 79.2922 77.136 76.9581 76.9865 74.594C76.2515 63.6907 72.9027 56.5648 67.104 52.6241C67.104 49.0509 66.7568 41.2717 64.0004 38.7602C61.2439 36.2488 56.5682 45.5799 55.0777 48.9693C50.7831 48.7718 46.4803 49.0733 42.2553 49.8677C38.1375 50.5227 34.1222 51.7101 30.3105 53.4C27.6357 50.664 20.1015 43.5176 18.4068 47.0295C16.7121 50.5415 19.1827 57.892 20.4486 61.1997C15.6708 68.0398 16.5487 76.3295 18.4068 82.5775C19.2844 85.5949 19.711 88.7256 19.6727 91.8678C19.6727 92.6029 19.6728 93.3379 19.5503 94.0321C19.3349 96.2676 18.8479 98.4685 18.1005 100.586C17.9575 100.974 17.8556 101.342 17.7331 101.709C22.665 105.615 28.3473 108.466 34.427 110.083C40.5067 111.701 46.854 112.052 53.075 111.114C59.2959 110.175 65.2577 107.968 70.5899 104.63C75.9221 101.291 80.511 96.8912 84.0716 91.7044L84.0511 91.684Z" fill="#0077FF"/>
            <path d="M63.8575 38.5968C62.6371 41.7134 61.9469 45.0123 61.8157 48.3567C61.8678 48.878 62.0553 49.3765 62.3598 49.8027C62.6642 50.229 63.075 50.568 63.5511 50.7864L67.1448 52.5832C67.1448 52.5832 67.6757 41.3941 63.8575 38.5968Z" fill="white"/>
            <path d="M18.4476 46.8662C20.2179 48.8826 21.7715 51.0794 23.0826 53.4205C23.5372 54.3187 23.7102 55.3331 23.5791 56.3313C23.448 57.3294 23.0188 58.2647 22.3476 59.015L20.3058 61.2407C20.3058 61.2407 15.875 50.8477 18.4476 46.8662Z" fill="white"/>
            <path d="M46.502 68.7135C39.029 70.2245 36.885 85.2114 19.3254 86.8857C19.3254 87.5799 19.489 88.2537 19.5502 88.9275C35.4968 91.9494 39.2945 100.321 39.9683 111.163C49.0098 112.376 58.2077 110.869 66.3893 106.834C63.102 91.5409 69.6563 83.1083 77.4969 78.6776C77.3335 77.9629 77.2109 77.2483 77.1088 76.5133C58.9163 80.2089 55.1798 66.9371 46.502 68.7135Z" fill="white"/>
            <path d="M46.5021 66.8963C48.9114 66.4471 48.7277 67.1617 48.0334 68.5297C47.5434 69.5506 46.4614 69.8161 45.3384 68.8769C44.2154 67.9377 44.2153 67.3046 46.5021 66.8963Z" fill="#212121"/>
            <path d="M44.8073 73.6139C44.8073 73.6139 45.3585 77.0237 48.2375 76.3907C48.6255 76.3193 48.992 76.1596 49.3085 75.9239C49.6249 75.6882 49.8831 75.3829 50.0627 75.0316C50.2423 74.6803 50.3386 74.2923 50.3443 73.8978C50.35 73.5033 50.2649 73.1126 50.0956 72.7563C49.8446 72.8887 49.5686 72.9675 49.2855 72.9874C49.0024 73.0073 48.7184 72.968 48.4513 72.8719C48.1842 72.7758 47.94 72.6252 47.7345 72.4295C47.5289 72.2338 47.3665 71.9974 47.2574 71.7354C47.2574 71.7354 47.2575 73.2463 46.0119 73.5117C44.7664 73.7772 44.8073 73.6139 44.8073 73.6139Z" fill="#FF52B9"/>
            <path d="M50.851 70.5309C50.8895 70.8374 50.8423 71.1486 50.7149 71.43C50.5875 71.7115 50.3847 71.9521 50.1289 72.1254C49.8732 72.2987 49.5747 72.398 49.2661 72.412C48.9574 72.4261 48.6509 72.3545 48.3805 72.2052C47.2575 71.368 47.2983 69.51 47.0533 68.1215C46.8491 67.8357 46.7265 67.8969 46.6856 68.1215C46.6495 68.1028 46.6089 68.0941 46.5682 68.0966C46.5276 68.0991 46.4884 68.1127 46.4548 68.1358C46.4213 68.1588 46.3947 68.1905 46.3778 68.2276C46.3609 68.2647 46.3545 68.3057 46.3591 68.3461C46.5837 69.6937 47.2575 71.4293 46.3591 72.5931C46.1563 72.8217 45.8948 72.9903 45.6029 73.0809C45.3111 73.1714 45 73.1804 44.7034 73.1068C44.4068 73.0332 44.1359 72.8798 43.9203 72.6633C43.7046 72.4468 43.5525 72.1753 43.4801 71.8784C43.4449 71.7457 43.3583 71.6325 43.2396 71.5636C43.1209 71.4947 42.9797 71.4757 42.847 71.5109C42.7143 71.5461 42.6011 71.6326 42.5322 71.7513C42.4633 71.87 42.4444 72.0112 42.4796 72.1439C42.6134 72.5937 42.8676 72.9985 43.2149 73.3142C43.5622 73.6299 43.9893 73.8446 44.4499 73.9351C44.9105 74.0255 45.3868 73.9882 45.8277 73.8273C46.2686 73.6663 46.6571 73.3877 46.9511 73.0218C47.1234 72.7253 47.2411 72.4003 47.2983 72.0622C47.6034 72.5183 48.0527 72.8588 48.5744 73.0291C49.0961 73.1993 49.6599 73.1894 50.1753 73.0011C50.6908 72.8128 51.1282 72.457 51.4173 71.9906C51.7064 71.5241 51.8304 70.9742 51.7697 70.4288C51.8922 69.7754 50.7898 69.8367 50.851 70.5309Z" fill="#212121"/>
            <path d="M55.6902 66.8556C55.2851 66.8782 54.8874 66.7412 54.5821 66.474C54.2768 66.2069 54.0881 65.8308 54.0567 65.4263C54.0567 64.2625 54.4855 63.0578 55.8943 62.9352C57.3032 62.8127 57.7526 64.0787 58.0997 65.1609C58.1593 65.3259 58.1808 65.5023 58.1627 65.6768C58.1446 65.8514 58.0873 66.0196 57.995 66.1688C57.9027 66.3181 57.7776 66.4445 57.6296 66.5387C57.4815 66.6329 57.3141 66.6924 57.1398 66.7127L55.6902 66.8556Z" fill="#212121"/>
            <path d="M36.5379 71.0413C36.925 70.8868 37.2349 70.585 37.3995 70.2021C37.5642 69.8192 37.5702 69.3867 37.416 68.9995C37.3553 68.7116 37.2331 68.4403 37.0578 68.204C36.8825 67.9677 36.6582 67.772 36.4003 67.6305C36.1424 67.489 35.857 67.4049 35.5636 67.3839C35.2702 67.3629 34.9756 67.4055 34.7002 67.5089C33.5364 67.9172 33.4751 69.367 33.6384 70.49C33.6499 70.6671 33.7027 70.8391 33.7922 70.9923C33.8817 71.1456 34.0055 71.2758 34.1541 71.3729C34.3027 71.47 34.4718 71.5312 34.6481 71.5516C34.8244 71.572 35.003 71.551 35.1698 71.4904L36.5379 71.0413Z" fill="#212121"/>
        </g>
    </g>
    <defs>
        <clipPath id="clip0_23_91887">
            <rect width="180" height="111.013" fill="white" transform="translate(0.5 0.986633)"/>
        </clipPath>
    </defs>
</svg>
