<svg width="249" height="137" viewBox="0 0 249 137" fill="none" xmlns="http://www.w3.org/2000/svg">
    <path d="M46.5199 133.45C70.72 133.45 90.3379 113.832 90.3379 89.6324C90.3379 65.4324 70.72 45.8145 46.5199 45.8145C22.3199 45.8145 2.7019 65.4324 2.7019 89.6324C2.7019 113.832 22.3199 133.45 46.5199 133.45Z" fill="#2787F5"/>
    <path d="M46.4804 136.101C37.5078 136.106 28.7259 133.512 21.1956 128.634C13.6654 123.755 7.70914 116.8 4.04658 108.609C0.384005 100.418 -0.828141 91.3416 0.556595 82.4766C1.94133 73.6116 5.86369 65.3369 11.8497 58.6531C17.8358 51.9692 25.6293 47.1622 34.2887 44.8123C42.948 42.4624 52.1026 42.6702 60.6463 45.4111C69.1899 48.152 76.757 53.3087 82.4332 60.2576C88.1094 67.2065 91.6518 75.6503 92.6323 84.5691C93.3008 90.6357 92.767 96.7745 91.0614 102.635C89.3557 108.495 86.5118 113.961 82.6921 118.721C78.8724 123.482 74.1519 127.442 68.8004 130.377C63.449 133.312 57.5716 135.163 51.5043 135.824C49.8358 136.006 48.1587 136.098 46.4804 136.101ZM46.4804 48.4521C44.9696 48.4529 43.46 48.5321 41.9575 48.6893C33.8579 49.5751 26.2028 52.8428 19.9606 58.0794C13.7183 63.316 9.16912 70.2861 6.88842 78.1083C4.60772 85.9305 4.69793 94.2533 7.14764 102.024C9.59736 109.795 14.2965 116.665 20.6509 121.765C27.0052 126.865 34.7292 129.966 42.8461 130.676C50.963 131.386 59.1081 129.673 66.2514 125.754C73.3947 121.835 79.2152 115.885 82.9768 108.657C86.7384 101.43 88.2722 93.2486 87.3842 85.1493C86.2704 75.0853 81.4925 65.7833 73.9612 59.0156C66.4298 52.2478 56.6716 48.4878 46.5463 48.4521H46.4804Z" fill="#19191A"/>
    <path d="M50.1193 43.5865C60.787 42.3602 72.2986 41.4503 80.5137 63.656C84.1135 73.4007 82.0565 75.5236 84.2981 82.6573C87.9244 94.1953 73.6436 112.788 54.1543 113.223C49.9479 113.315 46.8227 109.267 40.7043 113.869C35.9572 117.429 24.5115 116.243 15.6504 105.087C13.0261 101.885 11.2882 98.0506 10.6102 93.9664C9.9322 89.8823 10.3379 85.6918 11.7868 81.8135C14.9515 73.9018 9.29457 72.029 10.2967 58.434C12.0373 30.4131 46.77 33.5122 50.1193 43.5865Z" fill="#00DC7F"/>
    <path d="M56.6353 93.4962C57.2349 100.969 59.4291 108.226 63.0702 114.779C54.0244 127.781 29.4057 131.09 34.4692 121.372C36.7109 116.533 36.0383 107.751 34.2978 101.395L50.24 97.4389" fill="#FCA190"/>
    <path d="M58.0187 101.724C51.3464 111.944 31.6461 107.54 38.7667 106.63C45.8873 105.72 55.276 96.3839 55.276 96.3839C55.276 96.3839 56.5155 92.6522 56.8451 94.3928C57.0035 96.8683 57.3964 99.3232 58.0187 101.724Z" fill="#F07875"/>
    <path d="M17.8278 80.3359C17.0498 95.9485 20.6628 106.906 36.4863 107.394C48.7628 107.79 57.0306 96.6473 60.2216 86.573C69.307 86.6785 70.9289 77.3426 67.5137 74.7053C66.7271 74.1188 65.8127 73.7269 64.8455 73.5618C63.8782 73.3968 62.8856 73.4634 61.949 73.756C60.7152 74.1042 59.4094 74.1063 58.1744 73.7621C56.9395 73.4179 55.823 72.7407 54.9471 71.8044C50.6171 67.1135 46.7653 62.0026 43.4487 56.5478C18.6585 53.9765 17.8278 80.3359 17.8278 80.3359Z" fill="#FCA190"/>
    <path d="M28.535 91.8875C29.8536 93.6544 31.8711 95.8434 35.4974 94.9336C39.9148 93.8259 44.4113 88.9469 42.0905 86.9558C41.9573 86.8326 41.8061 86.7304 41.6422 86.6525C39.9939 85.8877 35.893 86.8899 30.091 88.2744C29.6302 88.3515 29.1981 88.5495 28.839 88.8484C28.4799 89.1473 28.2066 89.5363 28.0471 89.9755C27.983 90.3105 27.9934 90.6553 28.0777 90.9857C28.1621 91.3162 28.3182 91.6242 28.535 91.8875Z" fill="#171B4D"/>
    <path d="M27.9797 89.9097C29.99 90.2845 32.0484 90.3247 34.0718 90.0285C36.9534 89.7541 39.6974 88.6655 41.9836 86.89C41.8503 86.7668 41.6992 86.6646 41.5352 86.5867C39.887 85.8219 35.786 86.8241 29.9841 88.2086C29.5304 88.2921 29.1065 88.4932 28.7548 88.7916C28.4031 89.0901 28.1359 89.4757 27.9797 89.9097Z" fill="white"/>
    <path d="M26.5757 80.2361C28.0394 80.224 29.2147 78.8331 29.2007 77.129C29.1867 75.425 27.9888 74.0532 26.525 74.0652C25.0613 74.0772 23.886 75.4684 23.9 77.1725C23.914 78.8766 25.1119 80.2481 26.5757 80.2361Z" fill="#171B4D"/>
    <path d="M43.4574 79.0033C44.9211 78.9913 46.0964 77.6 46.0824 75.8959C46.0684 74.1919 44.8705 72.8204 43.4068 72.8324C41.943 72.8444 40.7677 74.2353 40.7817 75.9394C40.7957 77.6435 41.9936 79.0153 43.4574 79.0033Z" fill="#171B4D"/>
    <path d="M40.6262 67.6115C39.9009 69.3126 46.1776 70.1827 47.4699 68.7718C48.2347 67.941 47.2721 66.8861 44.8326 66.4114C42.7492 66.0158 41.0086 66.6621 40.6262 67.6115Z" fill="#171B4D"/>
    <path d="M21.9144 70.209C21.9144 71.8046 27.5713 70.5121 28.0987 69.3253C28.6262 68.1386 27.9932 67.4134 25.4615 67.7563C23.4308 68.0332 21.9935 69.1937 21.9144 70.209Z" fill="#171B4D"/>
    <path d="M51.1085 130.628C56.3902 130.09 61.5117 128.505 66.1735 125.965C70.8353 123.425 74.9439 119.98 78.259 115.833L61.697 112.128C61.697 112.128 40.9946 126.989 35.8519 115.293L19.4086 120.633C23.7153 124.399 28.7556 127.231 34.2116 128.951C39.6675 130.672 45.4208 131.243 51.1085 130.628Z" fill="#FF54AD"/>
    <path d="M202.37 133.358C226.679 133.358 246.386 113.652 246.386 89.3424C246.386 65.0331 226.679 45.3264 202.37 45.3264C178.061 45.3264 158.354 65.0331 158.354 89.3424C158.354 113.652 178.061 133.358 202.37 133.358Z" fill="#2787F5"/>
    <path d="M202.396 135.996C200.971 135.996 199.534 135.996 198.097 135.798C185.972 134.678 174.767 128.857 166.879 119.582C158.99 110.307 155.044 98.313 155.884 86.1657C156.724 74.0184 162.285 62.6821 171.375 54.5814C180.466 46.4807 192.366 42.2587 204.529 42.8184C216.692 43.378 228.154 48.675 236.462 57.5763C244.771 66.4776 249.266 78.2765 248.988 90.4496C248.709 102.623 243.678 114.203 234.971 122.715C226.264 131.227 214.572 135.994 202.396 135.996ZM202.396 47.9776C191.594 47.9938 181.228 52.2358 173.513 59.7963C165.799 67.3568 161.349 77.6357 161.115 88.4347C160.881 99.2336 164.882 109.696 172.262 117.583C179.642 125.47 189.815 130.157 200.606 130.64C211.397 131.124 221.948 127.367 230.004 120.171C238.06 112.976 242.981 102.914 243.715 92.1375C244.448 81.3609 240.936 70.7252 233.929 62.5047C226.922 54.2843 216.976 49.1318 206.22 48.1492C204.875 48.0305 203.596 47.9776 202.33 47.9776H202.396Z" fill="#19191A"/>
    <path d="M198.139 43.4577C185.754 39.7691 177.227 51.9697 170.176 65.1779C168.36 68.5828 163.948 72.4701 161.664 82.9544C156.897 104.519 174.915 129.772 195.245 129.332C199.629 129.233 208.539 119.741 215.107 124.381C220.215 127.998 225.365 124.693 234.175 112.237C238.9 105.54 247.384 91.3531 239.85 82.8976C231.849 73.9881 242.035 72.215 240.418 57.6022C237.268 27.4405 201.204 32.4344 198.139 43.4577Z" fill="#2929B2"/>
    <path d="M187.441 91.3999C189.445 99.4567 186.966 109.122 181.494 114.568C190.936 124.458 200.087 127.531 212.535 120.331C209.897 115.228 210.24 105.747 211.823 98.8371L194.496 95.369" fill="#FCA190"/>
    <path d="M187.694 102.015C193.693 108.357 208.488 107.698 207.302 104.718C199.601 104.059 188.023 94.9076 188.023 94.9076C188.23 97.2721 188.119 99.6534 187.694 101.988V102.015Z" fill="#F07875"/>
    <path d="M228.952 121.781C223.273 119.902 217.44 118.526 211.52 117.667C213.63 123.179 193.059 128.044 182.167 113.856C178.074 114.151 174.017 114.827 170.049 115.873C173.542 120.086 177.835 123.565 182.681 126.106C187.527 128.648 192.83 130.203 198.281 130.681C209.595 131.723 220.909 128.558 228.952 121.781Z" fill="white"/>
    <path d="M228.609 75.4971C230.165 92.2569 226.763 104.177 209.792 105.443C196.606 106.419 184.079 93.7467 182.708 84.1603C175.139 83.079 172.449 75.7211 175.442 72.2926C177.539 69.8795 181.547 72.1082 181.547 72.1082C181.547 72.1082 193.243 63.5635 200.008 51.1025C226.526 47.1994 228.609 75.4971 228.609 75.4971Z" fill="#FCA190"/>
    <path d="M218.548 88.4722C219.867 86.5074 218.667 85.0307 216.795 84.6615C210.478 83.422 205.098 82.3934 203.358 83.3428C199.89 85.3867 205.217 90.9382 210.281 91.9799C211.851 92.273 213.473 92.0964 214.943 91.4726C216.414 90.8487 217.668 89.805 218.548 88.4722Z" fill="white"/>
    <path d="M219.383 75.7945C220.962 75.7407 222.192 74.2102 222.129 72.3761C222.067 70.5419 220.736 69.0986 219.156 69.1524C217.577 69.2062 216.347 70.7367 216.41 72.5708C216.472 74.4049 217.803 75.8483 219.383 75.7945Z" fill="#252040"/>
    <path d="M212.561 80.0992C212.212 80.1464 211.858 80.0527 211.577 79.8387C211.296 79.6248 211.112 79.3083 211.065 78.9586C211.018 78.6089 211.111 78.2545 211.325 77.9738C211.539 77.6931 211.856 77.5091 212.205 77.4619C212.605 77.3575 212.997 77.2253 213.379 77.0663C213.334 77.0023 213.285 76.9408 213.234 76.8818C212.417 75.8924 211.827 74.7354 211.507 73.4929C211.468 73.324 211.462 73.149 211.491 72.9781C211.519 72.8072 211.581 72.6437 211.673 72.4968C211.765 72.3499 211.885 72.2224 212.026 72.1217C212.167 72.0211 212.327 71.9495 212.496 71.9106C212.664 71.8716 212.839 71.8662 213.01 71.8948C213.181 71.9234 213.345 71.9855 213.492 72.0773C213.638 72.1692 213.766 72.2888 213.866 72.4298C213.967 72.5709 214.039 72.7307 214.078 72.8995C214.33 73.785 214.781 74.6011 215.397 75.286C215.75 75.6175 216.013 76.0337 216.161 76.4952C216.308 76.9567 216.336 77.4482 216.24 77.9233C215.884 78.9782 214.737 79.5057 212.983 80.0068C212.85 80.0643 212.707 80.0957 212.561 80.0992Z" fill="#F07875"/>
    <path d="M203.529 62.8773C204.386 64.6839 197.674 65.8837 196.237 64.4464C195.367 63.5761 196.343 62.3894 199.006 61.8092C201.169 61.2422 203.068 61.8488 203.529 62.8773Z" fill="#252040"/>
    <path d="M223.756 64.803C223.901 66.5172 217.704 65.3832 217.071 64.1173C216.438 62.8514 217.071 62.0736 219.813 62.3242C222.029 62.5219 223.637 63.7086 223.756 64.803Z" fill="#252040"/>
    <path d="M195.089 72.6349C195.181 72.3316 196.263 72.4506 197.225 72.5561C198.188 72.6615 199.638 70.1955 202.909 71.0394C205.691 71.7515 206.298 73.8614 206.047 74.1383C205.796 74.4153 202.553 73.1228 200.654 73.6239C199.216 74.0063 198.926 74.6131 197.674 74.5208C196.962 74.4681 194.905 73.4261 195.089 72.6349Z" fill="#252040"/>
    <path d="M124.345 103.531C151.538 103.531 173.583 81.4864 173.583 54.2932C173.583 27.1001 151.538 5.05554 124.345 5.05554C97.152 5.05554 75.1076 27.1001 75.1076 54.2932C75.1076 81.4864 97.152 103.531 124.345 103.531Z" fill="#2787F5"/>
    <path d="M124.331 106.169C110.882 106.05 98.0272 100.609 88.5797 91.0357C79.1322 81.4624 73.8615 68.5367 73.9208 55.0869C73.9801 41.6371 79.3645 28.7585 88.896 19.2689C98.4275 9.77936 111.33 4.45142 124.78 4.45142C138.23 4.45142 151.132 9.77936 160.664 19.2689C170.195 28.7585 175.579 41.6371 175.639 55.0869C175.698 68.5367 170.427 81.4624 160.98 91.0357C151.532 100.609 138.678 106.05 125.228 106.169H124.331ZM124.331 7.69326H123.514C117.394 7.74434 111.345 9.00026 105.71 11.3893C100.076 13.7784 94.9675 17.254 90.6764 21.6174C82.0101 30.4296 77.1994 42.3234 77.3026 54.6826C77.4057 67.0418 82.4143 78.8539 91.2265 87.5202C100.039 96.1865 111.933 100.997 124.292 100.894H125.202C137.559 100.679 149.326 95.5664 157.916 86.6799C166.505 77.7934 171.215 65.8601 171.011 53.5024C170.8 41.2865 165.801 29.6417 157.091 21.0743C148.381 12.5069 136.655 7.70181 124.437 7.69326H124.331Z" fill="#19191A"/>
    <path d="M124.465 90.1144C138.969 89.8688 150.687 87.2556 150.637 84.2775C150.586 81.2993 138.787 79.084 124.282 79.3296C109.777 79.5752 98.0595 82.1887 98.1099 85.1668C98.1603 88.145 109.96 90.3599 124.465 90.1144Z" fill="white"/>
    <path d="M108.667 65.5153C109.696 76.4731 107.784 85.73 104.447 92.033C109.432 99.1932 143.373 97.1757 143.782 92.033C140.288 85.6509 140.05 80.0201 140.116 70.0645C132.903 69.4843 125.005 69.6689 117.805 69.0887" fill="#FCA190"/>
    <path d="M152.011 95.6457C148.425 105.641 106.558 108.713 97.0906 97.0828C95.2181 94.7752 96.0885 89.3822 98.4884 84.3846C115.507 88.6836 133.375 88.2732 150.179 83.1976C153.436 87.0612 154.055 89.9756 152.011 95.6457Z" fill="white"/>
    <path d="M108.705 76.5259C119.505 81.8004 139.034 73.3876 131.122 73.5854C123.21 73.7832 108.56 68.759 108.56 68.759C108.827 71.3393 108.875 73.9376 108.705 76.5259Z" fill="#F07875"/>
    <path d="M130.872 10.8579C124.147 5.39876 111.449 -2.44716 100.742 2.86692C91.7224 7.33707 91.2081 20.9716 103.379 26.167C118.464 6.25569 142.938 26.0881 145.799 32.9845C148.661 39.8809 132.745 52.2233 145.008 57.0759C147.118 61.8757 146.854 63.2204 149.439 48.2144C156.19 8.65555 130.872 10.8579 130.872 10.8579Z" fill="#252040"/>
    <path d="M128.447 19.6667C126.664 19.0222 124.947 18.2097 123.317 17.2403C121.689 16.2748 120.378 14.8541 119.546 13.1528C118.924 11.4679 118.854 9.62906 119.344 7.90145C119.835 6.17383 120.861 4.64664 122.276 3.53993C123.74 2.4474 125.414 1.66811 127.192 1.25068C128.971 0.833249 130.816 0.786515 132.614 1.11354C135.934 1.64184 139.03 3.12135 141.527 5.37268C144.024 7.62401 145.815 10.5508 146.684 13.7989C146.897 14.4489 146.973 15.1358 146.907 15.8168C146.841 16.4977 146.635 17.1577 146.301 17.7548C145.267 18.8496 143.849 19.5016 142.345 19.5743C138.267 20.1935 134.135 20.3926 130.016 20.168" fill="#252040"/>
    <path d="M99.2392 40.949C97.3525 39.9866 95.5639 38.8427 93.8988 37.5337C92.1123 36.0829 90.7201 34.2052 89.8506 32.0744C89.0837 30.0347 88.8823 27.8259 89.2676 25.6812C89.6529 23.5364 90.6107 21.5355 92.0395 19.8903C93.3836 18.5943 95.0476 17.6784 96.8616 17.2359C98.6755 16.7935 100.574 16.8403 102.364 17.3718C109.208 19.0728 115.406 26.1539 117.357 34.514C117.903 36.1937 117.852 38.0102 117.212 39.6565C116.77 40.2987 116.18 40.8248 115.491 41.1898C114.802 41.5549 114.036 41.7482 113.256 41.7532C109.125 42.3072 104.939 42.3072 100.808 41.7532" fill="#252040"/>
    <path d="M137.888 38.6546C119.15 31.4681 131.875 13.9172 141.277 10.6338C148.648 12.7304 158.894 19.2972 155.294 34.3691C153.487 41.9644 144.652 45.4325 140.631 45.7094" fill="#252040"/>
    <path d="M118.767 16.8448C105.265 18.4271 95.032 27.8024 99.1066 57.2606C102.443 81.497 137.439 75.4445 143.94 70.104C155.016 60.9527 149.636 23.5038 140.169 19.3896C130.701 15.2755 118.767 16.8448 118.767 16.8448Z" fill="#FCA190"/>
    <path d="M112.953 43.3816C114.583 43.2197 115.752 41.5495 115.564 39.6508C115.375 37.7521 113.901 36.3439 112.27 36.5058C110.639 36.6677 109.47 38.3383 109.659 40.237C109.847 42.1357 111.322 43.5435 112.953 43.3816Z" fill="#252040"/>
    <path d="M115.103 29.3182C118.439 31.5731 107.956 34.1575 106.07 32.1927C104.923 30.9928 106.967 29.4104 109.776 28.817C112.017 28.3555 114.193 28.4875 115.103 29.3182Z" fill="#252040"/>
    <path d="M129.83 29.0683C126.586 31.4286 137.148 33.657 138.955 31.6395C140.062 30.4 137.966 28.8836 135.144 28.3958C132.942 28.0002 130.727 28.2112 129.83 29.0683Z" fill="#252040"/>
    <path d="M134.62 43.0097C136.25 42.8478 137.419 41.1775 137.231 39.2788C137.042 37.3801 135.568 35.972 133.937 36.1339C132.307 36.2958 131.138 37.9664 131.326 39.8651C131.515 41.7638 132.989 43.1716 134.62 43.0097Z" fill="#252040"/>
    <path d="M123.671 47.5685H123.526C121.667 47.3575 120.401 47.0147 119.874 46.0126C119.699 45.5524 119.645 45.0553 119.716 44.5684C119.788 44.0814 119.983 43.6209 120.282 43.2304C120.771 42.4275 121.077 41.5273 121.179 40.5932C121.188 40.4199 121.23 40.25 121.304 40.0932C121.378 39.9365 121.483 39.7959 121.611 39.6795C121.74 39.5632 121.89 39.4731 122.054 39.4149C122.217 39.3567 122.39 39.3314 122.564 39.3402C122.738 39.3486 122.909 39.3917 123.067 39.4667C123.224 39.5418 123.366 39.6474 123.482 39.7774C123.599 39.9074 123.688 40.0593 123.746 40.2243C123.803 40.3892 123.827 40.5638 123.816 40.7381C123.706 42.0594 123.3 43.3393 122.63 44.4831C122.573 44.5757 122.525 44.6726 122.485 44.7731C122.919 44.8739 123.359 44.9443 123.803 44.984C124.153 45.005 124.48 45.1642 124.712 45.4263C124.945 45.6885 125.064 46.0321 125.043 46.3818C125.022 46.7315 124.863 47.0585 124.6 47.291C124.338 47.5234 123.995 47.6422 123.645 47.6213L123.671 47.5685Z" fill="#F07875"/>
    <path d="M107.387 84.2258C107.387 84.2258 106.794 86.296 115.088 87.1531C123.382 88.0103 108.838 88.2741 108.838 88.2741C108.838 88.2741 101.322 87.2852 101.968 86.6654C103.707 85.7097 105.519 84.8938 107.387 84.2258Z" fill="white"/>
    <path d="M140.801 83.6593C140.801 83.6593 141.843 85.6242 133.575 86.7582C125.307 87.8922 139.495 87.7472 139.495 87.7472C139.495 87.7472 146.972 86.5207 146.3 85.9141C144.528 85.0204 142.69 84.2665 140.801 83.6593Z" fill="white"/>
    <path d="M131.296 50.1924C131.968 51.0627 131.045 54.5045 127.432 55.6253C123.081 56.9439 118.861 55.322 119.52 53.6737C119.837 52.8034 123.265 53.6737 125.757 52.9352C128.672 52.0254 130.821 49.5858 131.296 50.1924Z" fill="#F07875"/>
    <path d="M147.737 39.6831C147.737 39.6831 151.693 35.8065 155.728 39.1954C158.484 41.5557 155.926 50.8123 148.475 53.5023C141.025 56.1923 147.737 39.6831 147.737 39.6831Z" fill="#FCA190"/>
    <path d="M100.374 40.5929C100.374 40.5929 96.1542 36.4524 92.5543 40.5929C90.1808 43.3357 92.5543 51.9726 100.097 54.4121C107.639 56.8516 100.374 40.5929 100.374 40.5929Z" fill="#FCA190"/>
    <path d="M33.0709 84.806C32.953 84.8252 32.8328 84.8252 32.7149 84.806C30.9611 84.3049 29.8139 83.7777 29.4579 82.7228C29.3587 82.2478 29.3843 81.755 29.5322 81.2928C29.6802 80.8306 29.9453 80.4148 30.3018 80.0855C30.9123 79.3972 31.3627 78.582 31.6204 77.6987C31.6974 77.349 31.9101 77.0443 32.2118 76.8514C32.5135 76.6585 32.8794 76.5932 33.2291 76.6702C33.5789 76.7471 33.8837 76.9599 34.0766 77.2616C34.2695 77.5633 34.3346 77.9291 34.2577 78.2789C33.9416 79.5257 33.3465 80.6846 32.5171 81.6678L32.372 81.8655C32.6226 81.9578 32.9918 82.1029 33.5588 82.2612C33.732 82.2854 33.8987 82.3434 34.0494 82.4321C34.2001 82.5208 34.3318 82.6383 34.4371 82.7779C34.5424 82.9174 34.6192 83.0767 34.6631 83.2459C34.707 83.4152 34.7171 83.5914 34.6928 83.7646C34.6686 83.9377 34.6105 84.1042 34.5218 84.2549C34.4331 84.4056 34.3156 84.5375 34.1761 84.6428C34.0365 84.7481 33.8775 84.8249 33.7083 84.8688C33.539 84.9127 33.3627 84.9227 33.1896 84.8984L33.0709 84.806Z" fill="#F07875"/>
</svg>
