<svg width="151" height="185" viewBox="0 0 151 185" fill="none" xmlns="http://www.w3.org/2000/svg">
    <path d="M131.786 171.154C134.811 157.653 107.916 140.132 71.714 132.02C35.5122 123.908 3.71244 128.277 0.687247 141.778C-2.33794 155.278 24.557 172.799 60.7588 180.911C96.9606 189.023 128.76 184.654 131.786 171.154Z" fill="#686868"/>
    <path d="M132 170.007C134.261 159.918 106.773 145.168 70.604 137.064C34.4349 128.959 3.28125 130.568 1.02039 140.658C-1.24048 150.748 26.2476 165.497 62.4167 173.602C98.5858 181.706 129.739 180.097 132 170.007Z" fill="#494949"/>
    <path d="M106.751 37.235C106.499 37.2316 106.25 37.1776 106.019 37.076C105.773 36.9845 105.548 36.8447 105.357 36.665C105.166 36.4852 105.012 36.2691 104.906 36.0292C104.799 35.7893 104.741 35.5306 104.736 35.2682C104.731 35.0057 104.778 34.7449 104.875 34.5009L108.531 25.2815C108.721 24.7841 109.1 24.3823 109.586 24.1647C110.072 23.9471 110.624 23.9314 111.122 24.1211C111.619 24.3109 112.021 24.6904 112.239 25.1763C112.456 25.6622 112.472 26.2147 112.282 26.7121L108.531 35.9315C108.398 36.3016 108.158 36.6234 107.84 36.8557C107.523 37.088 107.144 37.2201 106.751 37.235Z" fill="#0077FF"/>
    <path d="M127.289 67.6769C132.063 55.3482 123.046 40.3626 107.148 34.2058C91.25 28.0489 74.4915 33.0522 69.717 45.381C64.9424 57.7097 73.9597 72.6952 89.8577 78.8521C105.756 85.0089 122.514 80.0056 127.289 67.6769Z" fill="#0077FF"/>
    <path d="M109.962 31.3218C112.385 31.3218 114.349 29.3576 114.349 26.9347C114.349 24.5117 112.385 22.5475 109.962 22.5475C107.539 22.5475 105.574 24.5117 105.574 26.9347C105.574 29.3576 107.539 31.3218 109.962 31.3218Z" fill="#0077FF"/>
    <path d="M85.1963 48.5526C87.6719 48.5526 89.6788 46.5457 89.6788 44.0701C89.6788 41.5944 87.6719 39.5875 85.1963 39.5875C82.7206 39.5875 80.7137 41.5944 80.7137 44.0701C80.7137 46.5457 82.7206 48.5526 85.1963 48.5526Z" fill="#494949"/>
    <path d="M102.109 52.749C104.585 52.749 106.592 50.7421 106.592 48.2665C106.592 45.7908 104.585 43.7839 102.109 43.7839C99.6335 43.7839 97.6266 45.7908 97.6266 48.2665C97.6266 50.7421 99.6335 52.749 102.109 52.749Z" fill="#494949"/>
    <path d="M117.305 61.1419C119.781 61.1419 121.788 59.135 121.788 56.6594C121.788 54.1837 119.781 52.1768 117.305 52.1768C114.83 52.1768 112.823 54.1837 112.823 56.6594C112.823 59.135 114.83 61.1419 117.305 61.1419Z" fill="#494949"/>
    <path d="M150.01 90.9975C154.302 79.9131 132.524 61.1456 101.367 49.0792C70.2092 37.0128 41.4711 36.2167 37.1785 47.3011C32.8858 58.3855 54.664 77.1529 85.8215 89.2193C116.979 101.286 145.717 102.082 150.01 90.9975Z" fill="#0077FF"/>
    <path d="M130.793 86.398C132.86 81.0605 117.454 70.1182 96.3821 61.9576C75.3103 53.7971 56.5525 51.5086 54.4855 56.8461C52.4184 62.1837 67.8248 73.126 88.8966 81.2866C109.968 89.4471 128.726 91.7356 130.793 86.398Z" fill="#494949"/>
    <path d="M121.025 22.4521C120.652 22.4584 120.285 22.3606 119.965 22.1696C119.645 21.9787 119.384 21.7021 119.213 21.3712C118.09 19.1096 116.167 17.3461 113.817 16.4236C111.467 15.5012 108.857 15.4856 106.496 16.38C106.252 16.4783 105.991 16.5275 105.728 16.5247C105.464 16.522 105.204 16.4674 104.962 16.3641C104.72 16.2607 104.501 16.1107 104.317 15.9225C104.133 15.7343 103.987 15.5116 103.889 15.2673C103.701 14.7694 103.716 14.2177 103.93 13.7304C104.144 13.243 104.54 12.8589 105.034 12.6604C107.437 11.7106 110.056 11.4465 112.6 11.8974C114.773 12.2757 116.828 13.157 118.6 14.4707C120.372 15.7844 121.812 17.4943 122.805 19.4637C123.039 19.9411 123.077 20.4913 122.911 20.9963C122.745 21.5014 122.387 21.9212 121.915 22.166C121.642 22.3224 121.338 22.4199 121.025 22.4521Z" fill="#00EAFF"/>
    <path d="M131.421 18.3829C131.032 18.3866 130.651 18.2775 130.324 18.0686C129.997 17.8598 129.737 17.5603 129.577 17.2066C128.174 13.967 125.986 11.1281 123.211 8.94664C120.436 6.76518 117.16 5.30999 113.681 4.71269C109.781 4.0313 105.768 4.47232 102.109 5.98433C101.615 6.18592 101.062 6.1856 100.569 5.98345C100.075 5.78129 99.6809 5.39346 99.4705 4.90343C99.2708 4.40574 99.2757 3.84933 99.484 3.35521C99.6924 2.86108 100.087 2.4692 100.583 2.26477C106.683 -0.257684 113.532 -0.27389 119.644 2.21967C125.755 4.71323 130.638 9.51553 133.233 15.5852C133.447 16.0702 133.46 16.6202 133.269 17.1148C133.079 17.6094 132.7 18.0082 132.215 18.2239C131.962 18.3225 131.693 18.3763 131.421 18.3829Z" fill="#00EAFF"/>
    <path d="M54.4861 56.8501L1.77798 138.471L132.028 167.774L130.817 86.384L54.4861 56.8501Z" fill="#494949"/>
    <path d="M130.785 86.384L54.4861 56.8501L47.651 67.4047C59.066 76.7455 71.9595 84.1162 85.8003 89.2134C100.157 95.1014 115.464 98.3329 130.975 98.7508L130.785 86.384Z" fill="#64ACFF"/>
    <path d="M88.9159 81.2339C109.993 89.4042 128.75 91.6932 130.785 86.2251C107.069 72.4105 81.3181 62.4321 54.4861 56.6594C52.4197 62.1274 67.8384 73.0636 88.9159 81.2339Z" fill="#494949"/>
    <path d="M50.9891 98.3692C50.9891 98.3692 51.5295 91.2798 53.0873 91.0891C54.645 90.8983 56.8386 97.638 56.8386 97.638C56.8386 97.638 63.9598 98.0195 64.4049 99.4501C64.85 100.881 57.8241 104.632 57.8241 104.632C57.8241 104.632 57.8241 111.88 56.2346 112.167C54.645 112.453 51.9428 105.808 51.9428 105.808C51.9428 105.808 44.2811 103.71 44.1858 102.311C44.0904 100.913 50.9891 98.3692 50.9891 98.3692Z" fill="white"/>
    <path d="M34.8392 139.253C37.6484 139.253 39.9258 136.975 39.9258 134.166C39.9258 131.357 37.6484 129.079 34.8392 129.079C32.03 129.079 29.7526 131.357 29.7526 134.166C29.7526 136.975 32.03 139.253 34.8392 139.253Z" fill="#7A7A7A"/>
    <path d="M91.3956 147.741L93.0805 148.313C100.361 150.729 103.985 151.937 107.069 150.157C110.152 148.377 111.519 144.276 114.222 136.105L114.73 134.579C117.464 126.441 118.799 122.34 117.401 119.065C116.002 115.791 112.346 114.583 105.098 112.167L103.413 111.658C96.1324 109.242 92.5082 108.034 89.4245 109.846C86.3408 111.658 84.942 115.695 82.2397 123.866L81.7311 125.392C79.0288 133.53 77.6618 137.6 79.0924 140.906C80.523 144.212 84.1472 145.325 91.3956 147.741Z" fill="white"/>
    <path d="M78.6473 152.986L80.0143 152.637C86.0228 151.079 89.0112 150.284 90.3782 147.963C91.7452 145.643 90.9505 142.622 89.3927 136.646L89.1066 135.533C87.5488 129.556 86.7858 126.568 84.4333 125.169C82.0807 123.77 79.0924 124.597 73.1157 126.155L71.7486 126.504C65.7401 128.062 62.7518 128.857 61.3847 131.178C60.0177 133.498 60.7807 136.519 62.3385 142.495L62.6564 143.608C64.2142 149.585 64.9771 152.573 67.3297 153.972C69.6822 155.371 72.6706 154.48 78.6473 152.986Z" fill="#979797"/>
    <path d="M90.6484 147.485C91.6976 145.196 90.8869 142.209 89.4245 136.582L89.1384 135.438C87.5806 129.461 86.7858 126.473 84.4651 125.106C83.7289 124.679 82.8994 124.439 82.049 124.406L81.7311 125.296C79.0288 133.467 77.6618 137.536 79.0924 140.842C80.523 144.148 83.9405 145.26 90.6484 147.485Z" fill="#494949"/>
</svg>
