<svg width="28" height="28" viewBox="0 0 28 28" fill="none" xmlns="http://www.w3.org/2000/svg">
<path d="M24.4999 18.7833C25.0352 18.7833 25.477 19.1838 25.5418 19.7016L25.5499 19.8333V20.3343C25.5499 21.5979 25.3774 22.4211 24.9584 23.2046C24.5555 23.958 23.958 24.5555 23.2046 24.9584C22.4924 25.3393 21.7472 25.5165 20.6683 25.5456L20.3343 25.5499H19.8333C19.2534 25.5499 18.7833 25.0798 18.7833 24.4999C18.7833 23.9647 19.1838 23.5229 19.7016 23.4581L19.8333 23.45H20.3343C21.2753 23.45 21.7635 23.3476 22.2143 23.1066C22.6016 22.8994 22.8994 22.6016 23.1066 22.2143C23.3257 21.8045 23.4302 21.3638 23.4474 20.58L23.45 20.3343V19.8333C23.45 19.2534 23.9201 18.7833 24.4999 18.7833ZM3.49995 18.7833C4.03524 18.7833 4.47698 19.1838 4.54177 19.7016L4.54995 19.8333V20.3343C4.54995 21.2753 4.6523 21.7635 4.89334 22.2143C5.10051 22.6016 5.39826 22.8994 5.78565 23.1066C6.19538 23.3257 6.63614 23.4302 7.41988 23.4474L7.6656 23.45H8.16662C8.74652 23.45 9.21662 23.9201 9.21662 24.4999C9.21662 25.0352 8.81606 25.477 8.29833 25.5418L8.16662 25.5499H7.6656C6.40201 25.5499 5.57878 25.3774 4.79529 24.9584C4.04194 24.5555 3.44443 23.958 3.04153 23.2046C2.66061 22.4924 2.48336 21.7472 2.45429 20.6683L2.44995 20.3343V19.8333C2.44995 19.2534 2.92005 18.7833 3.49995 18.7833ZM19.8333 15.6333C20.3686 15.6333 20.8103 16.0338 20.8751 16.5516L20.8833 16.6833V17.1313C20.8833 17.954 20.7506 18.5682 20.4475 19.1348C20.1463 19.698 19.698 20.1463 19.1348 20.4475C18.639 20.7127 18.1068 20.8474 17.4304 20.877L17.1313 20.8833H10.8686C10.0459 20.8833 9.43173 20.7506 8.86512 20.4475C8.30189 20.1463 7.85359 19.698 7.55237 19.1348C7.28722 18.639 7.15246 18.1068 7.12291 17.4304L7.11662 17.1313V16.6833C7.11662 16.1034 7.58672 15.6333 8.16662 15.6333C8.70191 15.6333 9.14364 16.0338 9.20844 16.5516L9.21662 16.6833V17.1313C9.21662 17.6286 9.27651 17.9057 9.40418 18.1444C9.50967 18.3417 9.65821 18.4902 9.85548 18.5957C10.0601 18.7052 10.2929 18.7648 10.6684 18.7796L10.8686 18.7833H17.1313C17.6286 18.7833 17.9057 18.7234 18.1444 18.5957C18.3417 18.4902 18.4902 18.3417 18.5957 18.1444C18.7052 17.9398 18.7648 17.707 18.7796 17.3315L18.7833 17.1313V16.6833C18.7833 16.1034 19.2534 15.6333 19.8333 15.6333ZM16.8421 7.11662C17.9489 7.11662 18.5297 7.22879 19.1348 7.55237C19.698 7.85359 20.1463 8.30189 20.4475 8.86512C20.7442 9.41975 20.8631 9.95404 20.8809 10.8918L20.8833 11.1578L20.8821 11.7821L23.45 11.7833C24.0298 11.7833 24.4999 12.2534 24.4999 12.8333C24.4999 13.4132 24.0298 13.8833 23.45 13.8833H4.54995C3.97005 13.8833 3.49995 13.4132 3.49995 12.8333C3.49995 12.2534 3.97005 11.7833 4.54995 11.7833L7.11545 11.7821L7.11662 11.1578C7.11662 10.051 7.22879 9.47017 7.55237 8.86512C7.85359 8.30189 8.30189 7.85359 8.86512 7.55237C9.41975 7.25575 9.95404 7.13678 10.8918 7.11901L11.1578 7.11662H16.8421ZM16.8421 9.21662H11.1578C10.368 9.21662 10.1147 9.26554 9.85548 9.40418C9.65821 9.50967 9.50967 9.65821 9.40418 9.85548C9.29215 10.065 9.2387 10.2706 9.22231 10.7585L9.21662 11.1578L9.21545 11.7821H18.7821L18.7833 11.1578L18.7782 10.777C18.7625 10.2757 18.7092 10.0676 18.5957 9.85548C18.4902 9.65821 18.3417 9.50967 18.1444 9.40418C17.9349 9.29215 17.7293 9.2387 17.2414 9.22231L16.8421 9.21662ZM8.16532 2.44995C8.74522 2.44995 9.21532 2.92005 9.21532 3.49995C9.21532 4.03524 8.81476 4.47698 8.29703 4.54177L8.16532 4.54995H7.66509C6.72461 4.54995 6.23631 4.65232 5.78565 4.89334C5.39826 5.10051 5.10051 5.39826 4.89334 5.78565C4.67423 6.19534 4.56971 6.63614 4.55252 7.4195L4.54995 8.16662C4.54995 8.74652 4.07985 9.21662 3.49995 9.21662C2.96466 9.21662 2.52292 8.81606 2.45813 8.29833L2.44995 8.16662V7.66509C2.44995 6.40201 2.62255 5.57871 3.04153 4.79529C3.44443 4.04194 4.04194 3.44443 4.79529 3.04153C5.50749 2.66064 6.25265 2.48337 7.33122 2.45429L7.66509 2.44995H8.16532ZM20.3343 2.44995C21.5979 2.44995 22.4211 2.62252 23.2046 3.04153C23.958 3.44443 24.5555 4.04194 24.9584 4.79529C25.3393 5.50755 25.5165 6.25266 25.5456 7.3316L25.5499 7.6656V8.16662C25.5499 8.74652 25.0798 9.21662 24.4999 9.21662C23.9647 9.21662 23.5229 8.81606 23.4581 8.29833L23.45 8.16662V7.6656C23.45 6.7246 23.3476 6.23636 23.1066 5.78565C22.8994 5.39826 22.6016 5.10051 22.2143 4.89334C21.8045 4.67421 21.3638 4.56971 20.58 4.55252L19.8333 4.54995C19.2534 4.54995 18.7833 4.07985 18.7833 3.49995C18.7833 2.96466 19.1838 2.52292 19.7016 2.45813L19.8333 2.44995H20.3343Z" fill="#2688EB"/>
</svg>
