<svg width="44" height="44" viewBox="0 0 44 44" fill="none" xmlns="http://www.w3.org/2000/svg">
<path fill-rule="evenodd" clip-rule="evenodd" d="M22 34C28.6274 34 34 28.6274 34 22C34 15.3726 28.6274 10 22 10C15.3726 10 10 15.3726 10 22C10 28.6274 15.3726 34 22 34ZM28.2071 19.2071C28.5976 18.8166 28.5976 18.1834 28.2071 17.7929C27.8166 17.4024 27.1834 17.4024 26.7929 17.7929L20 24.5858L17.2071 21.7929C16.8166 21.4024 16.1834 21.4024 15.7929 21.7929C15.4024 22.1834 15.4024 22.8166 15.7929 23.2071L19.2929 26.7071C19.6834 27.0976 20.3166 27.0976 20.7071 26.7071L28.2071 19.2071Z" fill="#2688EB"/>
</svg>
