<svg width="227" height="136" viewBox="0 0 227 136" fill="none" xmlns="http://www.w3.org/2000/svg">
    <path d="M160.328 0.459794C148.751 0.267417 137.318 3.04513 127.121 8.52783C116.923 14.0105 108.301 22.0152 102.076 31.778C113.004 42.3314 119.76 56.4717 121.104 71.6041C122.448 86.7366 118.29 101.846 109.393 114.16C116.995 122.407 126.524 128.638 137.127 132.295C147.729 135.952 159.074 136.921 170.143 135.114C181.212 133.307 191.659 128.782 200.549 121.944C209.439 115.105 216.492 106.168 221.077 95.9325C225.662 85.6971 227.636 74.4837 226.82 63.2979C226.005 52.1121 222.427 41.3035 216.406 31.8411C210.385 22.3788 202.11 14.5585 192.322 9.08157C182.535 3.6046 171.542 0.642169 160.328 0.459794V0.459794Z" fill="#5BF1FF" fill-opacity="0.3"/>
    <mask id="mask0_23_93514" style="mask-type:alpha" maskUnits="userSpaceOnUse" x="102" y="0" width="125" height="136">
        <path d="M160.328 0.46077C148.751 0.268393 137.319 3.0461 127.121 8.52881C116.923 14.0115 108.301 22.0162 102.076 31.779C113.005 42.3324 119.761 56.4727 121.105 71.6051C122.449 86.7376 118.291 101.847 109.394 114.161C116.995 122.408 126.524 128.639 137.127 132.296C147.729 135.953 159.074 136.922 170.143 135.115C181.212 133.308 191.66 128.783 200.549 121.945C209.439 115.106 216.492 106.169 221.077 95.9335C225.663 85.698 227.636 74.4847 226.821 63.2989C226.005 52.1131 222.427 41.3044 216.406 31.8421C210.385 22.3798 202.11 14.5595 192.323 9.08255C182.535 3.60557 171.542 0.643145 160.328 0.46077V0.46077Z" fill="black"/>
    </mask>
    <g mask="url(#mask0_23_93514)">
        <path d="M139.49 141.572C131.07 139.146 126.866 137.939 126.153 134.8C125.439 131.66 128.747 128.754 135.234 122.955L182.289 81.18C188.089 75.9906 190.982 73.3958 193.875 74.291C196.768 75.1861 197.845 78.8448 200.024 86.2787L217.656 146.684C220.108 155.078 221.327 159.281 219.057 161.564C216.786 163.848 212.57 162.628 204.163 160.267L139.49 141.572Z" fill="#212121"/>
        <path d="M199.998 86.2788C197.819 78.845 196.742 75.1214 193.849 74.2911C190.956 73.4608 188.063 76.0296 182.263 81.1801L174.479 87.9134C176.425 91.2995 180.966 84.0214 183.327 84.4106C185.689 84.7998 183.185 89.1849 186.597 92.117C188.763 93.9852 191.202 90.1578 194.653 89.2107C197.157 88.5231 201.685 96.3722 202.308 94.4002L199.998 86.2788Z" fill="white"/>
        <path d="M93.6146 128.846C83.2357 125.862 78.0463 124.37 77.2289 120.516C76.4116 116.663 80.3685 113.083 88.4122 105.947L146.287 54.5716C153.41 48.2405 156.978 45.0749 160.558 46.0998C164.139 47.1247 165.449 51.7044 168.122 60.8508L189.801 135.138C192.811 145.517 194.316 150.615 191.526 153.418C188.737 156.22 183.561 154.715 173.208 151.757L93.6146 128.846Z" fill="#2929B2"/>
        <path d="M168.276 60.7294C165.603 51.6478 164.267 47.0033 160.712 45.9784C157.157 44.9535 153.603 48.1191 146.441 54.4502L135.53 64.1284C135.958 66.295 132.936 71.9126 134.856 72.8856C138.748 74.9225 146.999 65.4648 150.709 67.1384C156.885 69.9147 150.813 82.1878 158.065 85.1587C164.046 87.6237 164.098 69.5903 171.921 73.3526L168.276 60.7294Z" fill="white"/>
        <path d="M152.074 146.982C147.299 145.607 144.912 144.919 144.29 142.934C143.667 140.949 145.302 138.821 148.454 134.566L157.86 121.904C160.338 118.583 161.57 116.922 162.777 117.259C163.983 117.597 164.074 119.672 164.464 123.746L165.761 139.47C166.176 144.75 166.384 147.384 164.84 148.759C163.296 150.134 160.948 149.46 156.134 148.085L152.074 146.982Z" fill="#17D685"/>
        <path d="M166.643 143.543C165.551 143.139 164.634 142.369 164.048 141.364C163.075 139.353 164.762 137.342 168.109 133.333L181.614 117.181C184.092 114.197 185.338 112.718 186.7 113.107C188.062 113.496 188.322 115.416 188.841 119.256L191.682 140.118C192.395 145.308 192.746 147.902 190.851 149.083C189.82 149.626 188.632 149.791 187.491 149.55L187.971 153.027C188.672 158.216 189.022 160.811 187.141 161.992C185.26 163.172 182.172 162.29 176.023 160.526L170.522 158.93C164.372 157.165 161.298 156.335 160.337 154.272C159.377 152.209 161.038 150.25 164.398 146.229L166.643 143.543Z" fill="#17D685"/>
        <path d="M102.982 116.947C102.122 116.593 101.433 115.918 101.062 115.066C100.387 113.288 101.775 111.394 104.552 107.593L115.696 92.3488C117.746 89.5336 118.771 88.1324 119.809 88.4568C120.847 88.7811 120.963 90.4936 121.21 93.9575L122.507 112.808C122.845 117.492 123 119.827 121.482 120.982C120.726 121.507 119.794 121.712 118.888 121.552L119.108 124.692C119.445 129.376 119.601 131.711 118.083 132.878C116.565 134.046 114.191 133.358 109.534 132.009L105.343 130.803C100.647 129.505 98.2985 128.779 97.6368 126.988C96.9752 125.198 98.3504 123.304 101.127 119.516L102.982 116.947Z" fill="#17D685"/>
    </g>
    <path d="M58.0957 135.306C90.1811 135.306 116.191 109.296 116.191 77.2105C116.191 45.1251 90.1811 19.1147 58.0957 19.1147C26.0102 19.1147 -0.00012207 45.1251 -0.00012207 77.2105C-0.00012207 109.296 26.0102 135.306 58.0957 135.306Z" fill="#FFA75A" fill-opacity="0.2"/>
    <mask id="mask1_23_93514" style="mask-type:alpha" maskUnits="userSpaceOnUse" x="-1" y="19" width="118" height="117">
        <path d="M58.0955 135.283C90.1809 135.283 116.191 109.272 116.191 77.1867C116.191 45.1013 90.1809 19.0909 58.0955 19.0909C26.0101 19.0909 -0.000244141 45.1013 -0.000244141 77.1867C-0.000244141 109.272 26.0101 135.283 58.0955 135.283Z" fill="black"/>
    </mask>
    <g mask="url(#mask1_23_93514)">
        <path d="M32.2517 53.8341C29.0343 56.8958 13.2584 89.4336 28.8786 118.053C32.3547 124.552 34.1813 131.805 34.1978 139.174C34.4313 156.741 42.6825 183.622 58.0692 188.474L127.763 159.439C127.763 159.439 121.977 127.861 100.156 105.132C98.0278 102.9 95.7445 100.799 95.9002 97.7108C97.2495 72.8015 84.6132 58.79 81.3957 55.4687C80.4616 46.0499 78.3858 44.3374 75.4278 45.9462C71.8343 48.0814 68.5516 50.7006 65.6717 53.7303C57.6652 54.3607 49.7084 55.5134 41.8522 57.1813C37.3115 53.6784 35.2616 50.9539 32.2517 53.8341Z" fill="#FFA75A"/>
        <path d="M77.9191 81.1029C74.9526 83.5959 71.5095 85.4586 67.7997 86.5778C64.1793 87.1594 60.4727 86.3532 57.4209 84.3204L57.2651 82.4263C57.7943 82.1741 58.2632 81.8113 58.6403 81.3624C59.2051 80.7082 59.5975 79.9234 59.782 79.0791C59.83 78.8476 59.7955 78.6066 59.6844 78.3979C59.5733 78.1893 59.3927 78.0261 59.1738 77.9367C58.955 77.8474 58.7117 77.8373 58.4863 77.9086C58.2609 77.9798 58.0675 78.1277 57.9398 78.3266C56.7202 80.4542 55.345 80.9213 52.906 79.4683C52.7022 79.2985 52.44 79.2155 52.1757 79.2371C51.9114 79.2587 51.6661 79.3833 51.4927 79.5839C51.3193 79.7846 51.2315 80.0453 51.2483 80.31C51.2652 80.5747 51.3853 80.8221 51.5827 80.9991C52.4132 81.9802 53.5781 82.6182 54.852 82.7895C55.0337 83.3863 55.2932 84.1906 55.4748 84.8134C51.1676 90.1844 41.6968 91.5337 35.6251 88.4201C35.546 88.3616 35.4469 88.3369 35.3496 88.3515C35.2523 88.3661 35.1647 88.4188 35.1062 88.4979C35.0478 88.577 35.0231 88.6762 35.0377 88.7735C35.0523 88.8708 35.1049 88.9583 35.1841 89.0168C38.4559 91.3673 42.4677 92.4545 46.4787 92.0778C50.4896 91.701 54.2288 89.8857 57.0057 86.967C60.4397 89.0377 64.5544 89.6628 68.4484 88.7055C72.4374 87.3614 76.0123 85.0109 78.8273 81.8813C79.2165 81.3624 78.464 80.6099 77.9191 81.1029Z" fill="#F87345"/>
        <path d="M41.8269 57.2069C41.8269 57.2069 42.6312 61.6698 43.5913 61.592C44.5513 61.5141 46.3158 57.5182 47.7688 57.4663C49.2219 57.4144 52.2058 61.8254 53.7107 61.6438C55.2156 61.4622 56.7206 56.4544 58.485 56.4544C60.2494 56.4544 61.7803 59.4383 62.7922 59.3086C63.8042 59.1788 65.6464 53.704 65.6464 53.704C57.6002 53.9734 49.61 55.1484 41.8269 57.2069V57.2069Z" fill="#F87345"/>
        <path d="M23.9753 73.8124C23.1601 77.0737 22.622 80.3981 22.3666 83.7501C24.6451 83.6431 26.8744 83.0504 28.9052 82.0117C30.8513 80.5327 24.105 73.8902 24.105 73.8902L23.9753 73.8124Z" fill="#F87345"/>
        <path d="M28.9825 90.8073C29.5014 89.0948 23.5595 87.5639 22.1584 87.2526C22.0025 90.0111 22.0459 92.7774 22.2881 95.5297C23.9747 94.8032 28.4116 92.6755 28.9825 90.8073Z" fill="#F87345"/>
        <path d="M84.7951 71.4534C85.5476 72.3875 90.4516 72.2837 91.9306 72.2577C90.7457 69.2085 89.2867 66.2731 87.5715 63.4875C87.2601 64.0324 83.9648 70.3636 84.7951 71.4534Z" fill="#F87345"/>
        <path d="M94.9924 83.0511C94.5383 80.4141 93.8967 77.8127 93.0724 75.267C91.4637 76.4605 87.2861 80.0153 87.4678 81.4164C87.6494 82.8176 92.5275 83.0252 94.9924 83.0511Z" fill="#F87345"/>
        <path d="M81.3705 69.5827C82.5381 75.4986 80.7737 81.0513 74.8059 82.7898C72.1398 83.6004 69.2741 83.4528 66.7055 82.3722C64.1369 81.2917 62.0274 79.3465 60.7425 76.8738C60.0605 75.4953 59.6934 73.9824 59.6678 72.4446C59.6422 70.9067 59.9587 69.3825 60.5944 67.982C61.23 66.5815 62.1691 65.3398 63.3435 64.3467C64.5179 63.3535 65.8984 62.6339 67.385 62.2396C73.9756 60.2417 80.1769 63.6667 81.3705 69.5827Z" fill="#FFCCA1"/>
        <path d="M46.9643 79.8855C44.318 79.8919 41.6749 80.0652 39.0504 80.4044C33.5237 81.2088 32.3561 82.2985 31.7593 81.7537C31.1625 81.2088 33.1345 75.7339 39.3099 74.4885C40.1732 74.2526 41.078 74.2105 41.9595 74.3652C42.841 74.5199 43.6775 74.8675 44.4089 75.3832C45.1404 75.8989 45.7487 76.57 46.1905 77.3483C46.6323 78.1266 46.8965 78.9931 46.9643 79.8855V79.8855Z" fill="white"/>
        <mask id="mask2_23_93514" style="mask-type:alpha" maskUnits="userSpaceOnUse" x="31" y="74" width="16" height="8">
            <path d="M46.9643 79.8859C44.318 79.8923 41.6749 80.0657 39.0504 80.4049C33.5237 81.2093 32.3561 82.299 31.7593 81.7541C31.1625 81.2093 33.1345 75.7344 39.3099 74.489C40.1732 74.2531 41.078 74.211 41.9595 74.3657C42.841 74.5204 43.6775 74.8679 44.4089 75.3837C45.1404 75.8994 45.7487 76.5705 46.1905 77.3488C46.6323 78.1271 46.8965 78.9935 46.9643 79.8859V79.8859Z" fill="black"/>
        </mask>
        <g mask="url(#mask2_23_93514)">
            <path d="M44.0323 81.8048C46.4254 81.8048 48.3655 79.8648 48.3655 77.4716C48.3655 75.0785 46.4254 73.1384 44.0323 73.1384C41.6391 73.1384 39.6991 75.0785 39.6991 77.4716C39.6991 79.8648 41.6391 81.8048 44.0323 81.8048Z" fill="#212121"/>
        </g>
        <path d="M79.1646 73.8925C79.0089 74.0741 75.013 73.8925 71.3804 74.5672C67.7478 75.2418 64.1931 76.4353 63.9336 76.1239C63.2071 75.2158 65.4904 69.689 71.3026 68.6771C72.1634 68.4691 73.0579 68.441 73.9301 68.5946C74.8023 68.7482 75.6335 69.0801 76.3714 69.5697C77.1094 70.0592 77.7384 70.6959 78.2191 71.4397C78.6997 72.1835 79.0215 73.0185 79.1646 73.8925V73.8925Z" fill="white"/>
        <mask id="mask3_23_93514" style="mask-type:alpha" maskUnits="userSpaceOnUse" x="63" y="68" width="17" height="9">
            <path d="M79.1644 73.8919C79.0087 74.0735 75.0128 73.8919 71.3802 74.5666C67.7476 75.2412 64.1928 76.4347 63.9334 76.1233C63.2068 75.2152 65.4902 69.6884 71.3024 68.6765C72.1632 68.4685 73.0577 68.4404 73.9299 68.594C74.802 68.7476 75.6332 69.0795 76.3712 69.5691C77.1092 70.0586 77.7382 70.6952 78.2188 71.4391C78.6994 72.1829 79.0213 73.0179 79.1644 73.8919V73.8919Z" fill="black"/>
        </mask>
        <g mask="url(#mask3_23_93514)">
            <path d="M76.1806 75.8916C78.5737 75.8916 80.5138 73.9516 80.5138 71.5584C80.5138 69.1653 78.5737 67.2252 76.1806 67.2252C73.7874 67.2252 71.8474 69.1653 71.8474 71.5584C71.8474 73.9516 73.7874 75.8916 76.1806 75.8916Z" fill="#212121"/>
        </g>
    </g>
</svg>
